<svg width="35" height="55" viewBox="0 0 35 55" fill="none" xmlns="http://www.w3.org/2000/svg">
<g clip-path="url(#clip0_370_2355)">
<path d="M20.5147 19.8601C21.9028 18.42 22.6686 16.5249 22.6686 14.5225C22.6686 10.2827 19.2205 6.83453 14.9807 6.83453C10.7412 6.83453 7.29282 10.2827 7.29282 14.5225C7.29282 16.5242 8.05762 18.42 9.44732 19.8601C9.69252 20.1148 9.68632 20.5207 9.43162 20.7663C9.30712 20.8861 9.14722 20.9464 8.98732 20.9464C8.81912 20.9464 8.65232 20.8803 8.52672 20.7499C6.90522 19.0698 6.01202 16.8578 6.01202 14.5225C6.01202 9.57627 10.0352 5.55242 14.9821 5.55242C19.9287 5.55242 23.9523 9.57627 23.9523 14.5225C23.9523 16.8578 23.0598 19.0698 21.4383 20.7499C21.1935 21.0054 20.7885 21.0115 20.5322 20.7663C20.276 20.5199 20.2679 20.1148 20.5147 19.8601ZM5.50612 24.689C5.75852 24.4415 5.76362 24.0358 5.51612 23.7824C3.08052 21.2939 1.73872 18.0053 1.73872 14.5227C1.73872 7.22163 7.67882 1.28134 14.98 1.28134C22.281 1.28134 28.2211 7.22163 28.2211 14.5227C28.2211 18.006 26.8799 21.2945 24.4437 23.7831C24.1962 24.0359 24.2003 24.4415 24.4538 24.6891C24.5786 24.8111 24.7408 24.8721 24.9017 24.8721C25.0673 24.8721 25.2336 24.8078 25.3597 24.6801C28.0319 21.9504 29.5025 18.3427 29.5025 14.5228C29.5026 6.51439 22.9878 0 14.98 0C6.97202 0 0.45752 6.51439 0.45752 14.5225C0.45752 18.3425 1.92912 21.9496 4.60012 24.6793C4.84752 24.9317 5.25392 24.9361 5.50612 24.689ZM32.2507 52.1796L31.515 54.5468C31.4318 54.8163 31.1811 55 30.8987 55C30.898 55 30.898 55 30.898 55L17.1966 54.98C16.9267 54.98 16.6869 54.8123 16.5924 54.5607C16.4975 54.3093 16.569 54.0257 16.7722 53.8485C16.7702 53.8485 16.8815 53.7259 16.8725 53.5059C16.8631 53.2899 16.7277 52.8245 15.9282 52.14C15.6785 51.9033 10.3057 46.8048 8.01632 42.8169C7.38402 41.9271 2.70372 35.1943 3.82492 32.2336C4.09012 31.5322 4.64192 31.0614 5.42492 30.8703C5.77802 30.7449 6.13842 30.6813 6.49682 30.6813C8.55282 30.6813 10.0777 32.6997 11.1909 34.173C11.436 34.4988 11.7452 34.9072 11.9765 35.1615C12.0768 34.7128 12.1845 33.7069 12.1737 31.4517C12.1737 31.4289 12.1743 31.4048 12.177 31.3806C12.181 31.347 12.5189 27.9713 12.5387 17.193C12.4083 17.1662 12.2813 17.1092 12.186 17.002C11.5788 16.318 11.2445 15.4378 11.2445 14.5218C11.2445 12.4611 12.9207 10.7843 14.9814 10.7843C17.0421 10.7843 18.7182 12.4611 18.7182 14.5218C18.7182 15.3355 18.4427 16.1107 17.9582 16.7555C17.9719 16.8859 17.9857 17.0215 18.0009 17.1676C18.1266 18.4126 18.2616 20.042 18.4038 21.7669C18.5901 24.0337 18.833 26.97 19.0221 28.3241C19.5813 28.0384 20.3773 27.7347 21.2397 27.7347C22.1886 27.7347 23.4667 28.1035 24.4149 29.7578C24.8562 29.5895 25.4906 29.4077 26.188 29.4077C27.3133 29.4077 28.8033 29.8684 29.6751 31.9934C30.4663 32.1343 32.2132 32.5869 33.3512 33.9489C34.1492 34.9031 34.4925 36.1015 34.3745 37.5137C34.4735 38.3998 35.269 46.3603 32.2507 52.1796ZM12.5244 14.5225C12.5244 14.7827 12.5727 15.0362 12.6522 15.2793C13.0458 12.9598 14.0405 12.4364 14.851 12.4364C15.9447 12.4364 16.9576 13.4553 17.4227 14.3908C17.3519 13.0989 16.2894 12.0668 14.98 12.0668C13.6251 12.0661 12.5244 13.1683 12.5244 14.5225ZM33.0822 37.6018C33.0768 37.5555 33.0768 37.5093 33.0809 37.4629C33.1822 36.3793 32.9413 35.4781 32.3633 34.7833C31.2361 33.4253 29.1679 33.2242 29.1464 33.2221C28.8929 33.1987 28.6744 33.0297 28.5919 32.7897C28.1072 31.3821 27.3198 30.6988 26.1852 30.6988C25.2626 30.6988 24.4458 31.1567 24.4377 31.1614C24.2808 31.2513 24.0897 31.2714 23.9174 31.2144C23.7443 31.158 23.6022 31.032 23.5284 30.8656C22.9731 29.6278 22.2234 29.0256 21.237 29.0256C20.0936 29.0256 19.0113 29.8329 19.0005 29.8416C18.8363 29.9677 18.621 30.0073 18.4239 29.9482C17.8277 29.7713 17.7647 29.7526 17.1149 21.8728C16.9673 20.0947 16.7969 18.0267 16.6528 16.7156C16.6444 16.673 16.6377 16.6331 16.6384 16.5905C16.58 16.0748 16.5264 15.6869 16.4811 15.5092C16.4392 15.4445 16.4097 15.3717 16.3925 15.2943C16.2591 14.675 15.4071 13.7264 14.8488 13.7264C14.4834 13.7264 13.9985 14.3776 13.8268 16.2109C13.8261 27.3741 13.5022 31.0614 13.4611 31.4798C13.4755 34.9976 13.2267 35.9412 12.7908 36.379C12.6061 36.5648 12.3761 36.6626 12.1247 36.6626C11.4497 36.6626 10.9354 35.982 10.1568 34.952C9.20692 33.694 7.90702 31.9733 6.49342 31.9733C6.27482 31.9733 6.05052 32.0149 5.82842 32.0966C5.80372 32.1054 5.77792 32.1127 5.75172 32.1194C5.25922 32.2334 5.10752 32.4842 5.02852 32.6908C4.35762 34.4638 7.15862 39.3993 9.08222 42.093C9.09532 42.1098 9.10592 42.1285 9.11712 42.148C11.3029 45.9724 16.7359 51.1291 16.7899 51.1801C17.6888 51.9499 18.1571 52.7454 18.1612 53.5231C18.1612 53.5808 18.1586 53.6357 18.1545 53.6895L30.4212 53.7075L31.0335 51.7401C31.0449 51.7032 31.0588 51.667 31.0771 51.6322C34.0558 45.9519 33.0935 37.6848 33.0822 37.6018Z" fill="white" stroke="white"/>
</g>
<defs>
<clipPath id="clip0_370_2355">
<rect width="35" height="55" fill="white"/>
</clipPath>
</defs>
</svg>
