<svg width="50" height="50" viewBox="0 0 50 50" fill="none" xmlns="http://www.w3.org/2000/svg">
<path d="M24.9755 0.198364C11.285 0.198364 0.19873 11.3095 0.19873 25C0.19873 38.6904 11.285 49.8015 24.9755 49.8015C38.6908 49.8015 49.8019 38.6904 49.8019 25C49.8019 11.3095 38.6908 0.198364 24.9755 0.198364ZM25.0003 44.8412C14.038 44.8412 5.15905 35.9623 5.15905 25C5.15905 14.0377 14.038 5.15868 25.0003 5.15868C35.9626 5.15868 44.8416 14.0377 44.8416 25C44.8416 35.9623 35.9626 44.8412 25.0003 44.8412ZM26.2404 12.5992H22.5202V27.4801L35.541 35.2926L37.4011 32.242L26.2404 25.62V12.5992Z" fill="white"/>
</svg>
