<svg width="50" height="50" viewBox="0 0 50 50" fill="none" xmlns="http://www.w3.org/2000/svg">
<path d="M34.375 37.5H15.625C14.7962 37.5 14.0013 37.1708 13.4153 36.5847C12.8292 35.9987 12.5 35.2038 12.5 34.375V29.6875H15.625V34.375H34.375V29.6875H37.5V34.375C37.5 35.2038 37.1708 35.9987 36.5847 36.5847C35.9987 37.1708 35.2038 37.5 34.375 37.5ZM3.125 23.4375H46.875V26.5625H3.125V23.4375ZM37.5 20.3125H34.375V15.625H15.625V20.3125H12.5V15.625C12.5 14.7962 12.8292 14.0013 13.4153 13.4153C14.0013 12.8292 14.7962 12.5 15.625 12.5H34.375C35.2038 12.5 35.9987 12.8292 36.5847 13.4153C37.1708 14.0013 37.5 14.7962 37.5 15.625V20.3125ZM46.875 15.625H43.75V6.25H34.375V3.125H46.875V15.625ZM6.25 15.625H3.125V3.125H15.625V6.25H6.25V15.625ZM15.625 46.875H3.125V34.375H6.25V43.75H15.625V46.875ZM46.875 46.875H34.375V43.75H43.75V34.375H46.875V46.875Z" fill="#EC6432"/>
</svg>
